HIERARCHY
ROOT ui
{
	 OFFSET 0 0 0
	 CHANNELS 3 XPosition YPosition Z Position
	 EndSite
	 {
	 OFFSET 0 -1 0
	 }
}
ROOT li
{
	 OFFSET 0 0 0
	 CHANNELS 3 XPosition YPosition Z Position
	 EndSite
	 {
	 OFFSET 0 -1 0
	 }
}
ROOT ul
{
	 OFFSET 0 0 0
	 CHANNELS 3 XPosition YPosition Z Position
	 EndSite
	 {
	 OFFSET 0 -1 0
	 }
}
ROOT ll
{
	 OFFSET 0 0 0
	 CHANNELS 3 XPosition YPosition Z Position
	 EndSite
	 {
	 OFFSET 0 -1 0
	 }
}
ROOT tt
{
	 OFFSET 0 0 0
	 CHANNELS 3 XPosition YPosition Z Position
	 EndSite
	 {
	 OFFSET 0 -1 0
	 }
}
ROOT tb
{
	 OFFSET 0 0 0
	 CHANNELS 3 XPosition YPosition Z Position
	 EndSite
	 {
	 OFFSET 0 -1 0
	 }
}
ROOT td
{
	 OFFSET 0 0 0
	 CHANNELS 3 XPosition YPosition Z Position
	 EndSite
	 {
	 OFFSET 0 -1 0
	 }
}
ROOT v
{
	 OFFSET 0 0 0
	 CHANNELS 3 XPosition YPosition Z Position
	 EndSite
	 {
	 OFFSET 0 -1 0
	 }
}
ROOT bn
{
	 OFFSET 0 0 0
	 CHANNELS 3 XPosition YPosition Z Position
	 EndSite
	 {
	 OFFSET 0 -1 0
	 }
}
MOTION
Frames: 21
Frame Time: 0.002
0.0012182250022888183	2.092670053243637E-4	0		0.4402608947753906	-2.320650634765625	0		-1.1600279541015626	-0.03974429321289062	0		-0.7656002807617187	-2.34356005859375	0		1.525322998046875	-0.35639950561523437	0		3.149611572265625	0.23791555786132812	0		4.734859375	0.27298846435546875	0		5.62389013671875	0.2200897216796875	0		-0.2729634704589844	5.96121630859375	0		
0.007367088794708252	0.00680146598815918	0		0.44635678100585935	-2.314068359375	0		-1.1488114013671875	-0.030243019104003906	0		-0.7256074829101562	-2.3417421875	0		1.5851923828125	-0.3620985717773437	0		3.171341796875	0.22606761169433592	0		4.73382958984375	0.2716380615234375	0		5.62751123046875	0.22612739562988282	0		-0.25665792846679686	5.9685810546875	0		
0.02925754928588867	0.002036026954650879	0		0.43446240234375	-2.307052734375	0		-1.1519149169921874	-0.034399478912353516	0		-0.7724228515625	-2.330884521484375	0		1.567319091796875	-0.355967529296875	0		3.152715087890625	0.24218447875976562	0		4.744845703125	0.27202438354492187	0		5.62683837890625	0.23070878601074218	0		-0.2727197570800781	5.96070947265625	0		
-0.019716890335083007	0.0039444310665130615	0		0.4421430358886719	-2.3184814453125	0		-1.1299796142578125	-0.03712421035766601	0		-0.739609375	-2.33687353515625	0		1.564207763671875	-0.3601651916503906	0		3.13943212890625	0.2301890411376953	0		4.7348427734375	0.2719218139648438	0		5.6268291015625	0.23009791564941406	0		-0.301087646484375	5.9401396484375	0		
0.0011663739681243897	-7.605730295181275E-4	0		0.4400080871582031	-2.321658447265625	0		-1.1659647216796876	-0.03547464370727539	0		-0.778711181640625	-2.3381611328125	0		1.5641827392578125	-0.360412841796875	0		3.154415283203125	0.22955812072753906	0		4.73754931640625	0.25954193115234375	0		5.623845703125	0.21758277893066405	0		-0.27249923706054685	5.96027001953125	0		
-0.019763328552246093	0.0035372469425201418	0		0.4420020751953125	-2.318907470703125	0		-1.1601131591796876	-0.04078290176391602	0		-0.7299644775390625	-2.346483154296875	0		1.5368729248046875	-0.3720015869140625	0		3.164036865234375	0.21407220458984375	0		4.73480712890625	0.27132110595703124	0		5.61740625	0.21742161560058593	0		-0.3008924560546875	5.939744140625	0		
0.00418614387512207	0.002807615041732788	0		0.4439591979980469	-2.31713134765625	0		-1.1489267578125	-0.03118852996826172	0		-0.7619282836914063	-2.340888427734375	0		1.5402659912109375	-0.35327481079101564	0		3.158677978515625	0.24297540283203126	0		4.7347685546875	0.27106112670898436	0		5.62675927734375	0.2285249481201172	0		-0.2571298217773437	5.96856640625	0		
-0.019867420196533203	0.0032287189960479735	0		0.46877847290039065	-2.320866455078125	0		-1.11609033203125	-0.036081134796142576	0		-0.7388978881835937	-2.335556396484375	0		1.534341552734375	-0.3473060607910156	0		3.14825	0.22701370239257812	0		4.73471337890625	0.2708311157226562	0		5.62262109375	0.24736907958984375	0		-0.2722853393554687	5.9597841796875	0		
0.004050364017486572	0.0025515100955963133	0		0.4416925354003906	-2.31935595703125	0		-1.1602952880859374	-0.04114178466796875	0		-0.7508709106445313	-2.3293779296875	0		1.5639464111328125	-0.3611480407714844	0		3.181497802734375	0.24006529235839844	0		4.734642578125	0.2706326904296875	0		5.62256640625	0.24700125122070313	0		-0.2713025207519531	5.9576513671875	0		
8.685929775238037E-4	-0.0014643499851226807	0		0.46337142944335935	-2.327965087890625	0		-1.12341845703125	-0.04307831573486328	0		-0.742259033203125	-2.3406611328125	0		1.524909423828125	-0.35834619140625	0		3.1384248046875	0.24093475341796874	0		4.73455810546875	0.2704667663574219	0		5.6236259765625	0.21547856140136717	0		-0.2722451171875	5.95959130859375	0		
7.699189782142639E-4	-0.0015248650312423707	0		0.44143115234375	-2.319517822265625	0		-1.15234521484375	-0.035442211151123046	0		-0.7644579467773438	-2.343192626953125	0		1.5695814208984376	-0.36848480224609376	0		3.14920947265625	0.23556915283203125	0		4.7344638671875	0.27033377075195314	0		5.62355419921875	0.21522727966308594	0		-0.25704522705078126	5.96818017578125	0		
0.0037575209140777587	0.0023695199489593504	0		0.47030886840820313	-2.319239990234375	0		-1.112391845703125	-0.033401355743408204	0		-0.7605031127929688	-2.33931103515625	0		1.5514757080078125	-0.368117431640625	0		3.170842529296875	0.22397731018066405	0		4.7333388671875	0.26925787353515623	0		5.63352783203125	0.22138423156738282	0		-0.25513902282714845	5.965103515625	0		
0.0036475510597229004	0.002361732006072998	0		0.4452475891113281	-2.31566650390625	0		-1.1125023193359376	-0.03339529037475586	0		-0.7287686157226563	-2.345060546875	0		1.5738018798828124	-0.3496671142578125	0		3.152116943359375	0.24037269592285157	0		4.7384189453125	0.27707156372070313	0		5.6293544921875	0.24052056884765624	0		-0.2703825378417969	5.95645458984375	0		
4.4172900915145875E-4	-0.0015486350059509277	0		0.48981475830078125	-2.328708984375	0		-1.123847412109375	-0.04310349273681641	0		-0.7756820678710937	-2.33493115234375	0		1.5244637451171874	-0.35851058959960935	0		3.13872802734375	0.22866531372070312	0		4.73100537109375	0.2642058410644531	0		5.62331689453125	0.21482923889160158	0		-0.2714059143066406	5.95749853515625	0		
0.003421135902404785	0.0024224960803985594	0		0.438810302734375	-2.322471435546875	0		-1.1239617919921876	-0.0430498161315918	0		-0.7449918212890625	-2.342608642578125	0		1.5691220703125	-0.3685392761230469	0		3.1487783203125	0.2354406280517578	0		4.73403466796875	0.27013092041015624	0		5.62323486328125	0.21481129455566406	0		-0.270486328125	5.95652099609375	0		
2.131589949131012E-4	-0.0014389870166778564	0		0.4386763000488281	-2.322408447265625	0		-1.16104296875	-0.041102588653564455	0		-0.7671905517578125	-2.3450166015625	0		1.5389891357421874	-0.3687787780761719	0		3.15349951171875	0.2283653564453125	0		4.733921875	0.2701582336425781	0		5.62315234375	0.21484696960449218	0		-0.2705513000488281	5.95658984375	0		
0.003191373109817505	0.002578840970993042	0		0.44061468505859375	-2.319369873046875	0		-1.1499259033203124	-0.031266607284545896	0		-0.7293094482421875	-2.344817138671875	0		1.5840001220703126	-0.3637618713378906	0		3.14271875	0.24268772888183593	0		4.73797265625	0.27711795043945314	0		5.6301494140625	0.20933763122558594	0		-0.2706240234375	5.95668115234375	0		
0.02804446601867676	0.0011011899709701537	0		0.46640652465820315	-2.322873046875	0		-1.153135986328125	-0.035076774597167966	0		-0.7762147216796875	-2.3345966796875	0		1.5449395751953126	-0.3607417907714844	0		3.156387939453125	0.23345274353027343	0		4.74369140625	0.27006137084960935	0		5.63011669921875	0.21466120910644532	0		-0.26972869873046873	5.95577099609375	0		
-0.024108339309692382	4.583170115947723E-4	0		0.43828286743164063	-2.322084228515625	0		-1.1244293212890626	-0.04262150192260742	0		-0.70952978515625	-2.343038818359375	0		1.571739501953125	-0.3642536010742187	0		3.165431396484375	0.24035450744628906	0		4.7335751953125	0.2704051513671875	0		5.62817724609375	0.24436558532714844	0		-0.26981982421875	5.9559033203125	0		
-2.6617500185966493E-4	-9.5762300491333E-4	0		0.4620218811035156	-2.3275009765625	0		-1.161523193359375	-0.040595932006835936	0		-0.7805758666992187	-2.3382138671875	0		1.529574951171875	-0.36511962890625	0		3.148191650390625	0.23589395141601563	0		4.7393056640625	0.26439675903320314	0		5.6269521484375	0.2013903045654297	0		-0.27090087890625	5.9570771484375	0		
-0.024373929977416994	7.736279964447022E-4	0		0.4380019226074219	-2.32177197265625	0		-1.1616612548828125	-0.04042694091796875	0		-0.7349925537109375	-2.350127197265625	0		1.5442196044921874	-0.3743092956542969	0		3.133058349609375	0.23640451049804687	0		4.7333115234375	0.27068902587890625	0		5.62040283203125	0.1985582275390625	0		-0.26906991577148437	5.95519677734375	0		
